<svg xmlns="http://www.w3.org/2000/svg" version="1.1" x="0" y="0" width="145.4" height="181.5" viewBox="0 0 145.4 181.5" xml:space="preserve" enable-background="new 0 0 145.4 181.5"><style type="text/css">
	.st0{fill:#4D4E4E;}
	.st1{fill:url(#SVGID_1_);}
	.st2{fill:url(#SVGID_2_);}
	.st3{fill:url(#SVGID_3_);}
	.st4{fill:url(#SVGID_4_);}
	.st5{fill:url(#SVGID_5_);}
	.st6{fill:#D0D2D3;}
	.st7{fill:url(#SVGID_6_);}
	.st8{fill:url(#SVGID_7_);}
	.st9{fill:url(#SVGID_8_);}
	.st10{fill:url(#SVGID_9_);}
	.st11{fill:url(#SVGID_10_);}
</style><polygon class="st0" points="145.4 135 73.6 139.9 0 135 0 0 145.4 0 "/><radialGradient id="SVGID_1_" cx="-985.66" cy="19.33" r="169.89" gradientTransform="matrix(4.489700e-11 1 1 -4.489700e-11 129.0887 1079.1748)" gradientUnits="userSpaceOnUse"><stop offset="0" stop-color="#FFCE4E"/><stop offset="1" stop-color="#F3C135"/></radialGradient><path class="st1" d="M54.1 149L0 116.4l0 16.5c0 3.9 2.7 8.7 6.1 10.7l23.1 13.9c3.4 1.6 8.3 1.6 11.4-0.3L54.1 149z"/><radialGradient id="SVGID_2_" cx="-985.65" cy="19.33" r="169.88" gradientTransform="matrix(4.489700e-11 1 1 -4.489700e-11 129.0887 1079.1748)" gradientUnits="userSpaceOnUse"><stop offset="0" stop-color="#07A860"/><stop offset="1" stop-color="#06914A"/></radialGradient><path class="st2" d="M78.8 134.1c-3.3 2-8.8 2-12.2 0L5.4 97.5c-3-1.4-5.4 0.1-5.4 3.7l0 15.2L54.1 149 78.8 134.1z"/><radialGradient id="SVGID_3_" cx="-985.66" cy="19.33" r="169.88" gradientTransform="matrix(4.489700e-11 1 1 -4.489700e-11 129.0887 1079.1748)" gradientUnits="userSpaceOnUse"><stop offset="0" stop-color="#587EBE"/><stop offset="1" stop-color="#557EBF"/></radialGradient><path class="st3" d="M145.4 101.2c0-3.9-2.7-5.5-6.1-3.5l-98.8 59.5c-3.1 1.9-8 1.9-11.4 0.3l24.1 14.5 92.2-55.5V101.2z"/><radialGradient id="SVGID_4_" cx="-985.65" cy="19.33" r="169.88" gradientTransform="matrix(4.489700e-11 1 1 -4.489700e-11 129.0887 1079.1748)" gradientUnits="userSpaceOnUse"><stop offset="0" stop-color="#DF4B3E"/><stop offset="1" stop-color="#CC382C"/></radialGradient><path class="st4" d="M78.8 180l60.6-36.4c3.3-2 6.1-6.8 6.1-10.7v-16.5l-92.2 55.5 13.4 8C70 182 75.5 182 78.8 180z"/><linearGradient id="SVGID_5_" gradientUnits="userSpaceOnUse" x1="-913.17" y1="-75.11" x2="-954.1" y2="-75.11" gradientTransform="matrix(4.489700e-11 1 1 -4.489700e-11 129.0887 1079.1748)"><stop offset="0" style="stop-color:#221F1F;stop-opacity:0.2"/><stop offset="1" style="stop-color:#F2F2F2;stop-opacity:0.25"/></linearGradient><path class="st5" d="M40.6 157.2l38.2-23.1c-3.3 2-8.8 2-12.2 0L53.1 126l-23.9 31.5C32.5 159.1 37.5 159 40.6 157.2z"/><path class="st6" d="M43.2 33.5h12.4v16.2c-2 0.7-3.9 1.1-5.7 1.4 -1.8 0.3-3.6 0.4-5.4 0.4 -4.7 0-8.3-1.4-10.8-4.1 -2.5-2.8-3.7-6.7-3.7-11.9 0-5 1.4-9 4.3-11.8 2.9-2.8 6.9-4.2 12-4.2 3.2 0 6.3 0.6 9.3 1.9l-2.2 5.3c-2.3-1.1-4.6-1.7-7.1-1.7 -2.9 0-5.1 1-6.9 2.9 -1.7 1.9-2.6 4.5-2.6 7.7 0 3.4 0.7 6 2.1 7.8 1.4 1.8 3.4 2.7 6 2.7 1.4 0 2.8-0.1 4.2-0.4V39h-5.9V33.5z"/><path class="st6" d="M85.4 35.1c0 5.1-1.5 9.1-4.4 11.8S73.8 51 68.3 51h-8.8V19.8h9.8c5.1 0 9 1.3 11.9 4C84 26.5 85.4 30.3 85.4 35.1zM78.5 35.3c0-6.7-3-10-8.9-10h-3.5v20.3h2.8C75.3 45.6 78.5 42.1 78.5 35.3z"/><path class="st6" d="M100.2 33.5h12.4v16.2c-2 0.7-3.9 1.1-5.7 1.4 -1.8 0.3-3.6 0.4-5.4 0.4 -4.7 0-8.3-1.4-10.8-4.1 -2.5-2.8-3.7-6.7-3.7-11.9 0-5 1.4-9 4.3-11.8 2.9-2.8 6.9-4.2 12-4.2 3.2 0 6.3 0.6 9.3 1.9l-2.2 5.3c-2.3-1.1-4.6-1.7-7.1-1.7 -2.9 0-5.1 1-6.9 2.9 -1.7 1.9-2.6 4.5-2.6 7.7 0 3.4 0.7 6 2.1 7.8 1.4 1.8 3.4 2.7 6 2.7 1.4 0 2.8-0.1 4.2-0.4V39h-5.9V33.5z"/><path class="st6" d="M33 63.4v5.8H32V55.9h3.2c1.7 0 2.9 0.3 3.7 0.9 0.8 0.6 1.2 1.5 1.2 2.8 0 0.9-0.2 1.7-0.7 2.3s-1.2 1.1-2.2 1.3l3.6 6.1h-1.1l-3.5-5.8H33zM33 62.6h2.6c1.1 0 2-0.3 2.6-0.8 0.6-0.5 0.9-1.2 0.9-2.2 0-1-0.3-1.8-0.9-2.2 -0.6-0.5-1.6-0.7-3-0.7H33V62.6z"/><path class="st6" d="M43.2 69.3V55.9h0.9v13.4H43.2z"/><path class="st6" d="M59.2 62.6c0 2.1-0.5 3.8-1.6 5 -1.1 1.2-2.5 1.9-4.4 1.9 -1.9 0-3.3-0.6-4.4-1.9 -1.1-1.2-1.6-2.9-1.6-5.1 0-2.1 0.5-3.8 1.6-5 1.1-1.2 2.5-1.8 4.4-1.8 1.9 0 3.3 0.6 4.4 1.8C58.7 58.7 59.2 60.4 59.2 62.6zM48.3 62.6c0 1.9 0.4 3.4 1.3 4.5 0.9 1 2.1 1.6 3.7 1.6 1.6 0 2.8-0.5 3.7-1.6 0.9-1 1.3-2.5 1.3-4.5 0-1.9-0.4-3.4-1.3-4.4 -0.9-1-2.1-1.5-3.7-1.5 -1.6 0-2.8 0.5-3.7 1.6C48.7 59.2 48.3 60.7 48.3 62.6z"/><path class="st6" d="M77.4 62.5c0 2.3-0.6 4-1.8 5.1 -1.2 1.2-2.9 1.7-5.2 1.7h-3.2V55.9h3.6c2.1 0 3.8 0.6 4.9 1.7C76.8 58.7 77.4 60.3 77.4 62.5zM76.3 62.5c0-1.9-0.5-3.4-1.5-4.3 -1-1-2.4-1.5-4.3-1.5h-2.5v11.8h2.2C74.3 68.5 76.3 66.5 76.3 62.5z"/><path class="st6" d="M87.8 69.3h-7.3V55.9h7.3v0.9h-6.4v5.1h6v0.9h-6v5.8h6.4V69.3z"/><path class="st6" d="M95.7 69.3V55.9h0.9v12.5h6.4v0.9H95.7z"/><path class="st6" d="M111.8 64.6h-5.4l-1.9 4.7h-1l5.4-13.5h0.6l5.3 13.5h-1.1L111.8 64.6zM106.7 63.7h4.8l-1.8-4.8c-0.2-0.4-0.3-0.9-0.6-1.6 -0.2 0.6-0.3 1.1-0.5 1.6L106.7 63.7z"/><path class="st6" d="M46.5 78.3c0 2.1-0.7 3.8-2.2 4.9 -1.4 1.1-3.5 1.7-6.1 1.7h-3.4V94h-1.5V72h5.4C43.9 72 46.5 74.1 46.5 78.3zM34.8 83.6h3c2.5 0 4.3-0.4 5.4-1.2 1.1-0.8 1.7-2.1 1.7-4 0-1.7-0.5-2.9-1.6-3.8 -1-0.8-2.7-1.2-4.8-1.2h-3.6V83.6z"/><path class="st6" d="M51.3 94V72h1.5v20.5h10.5V94H51.3z"/><path class="st6" d="M77.6 86.2h-8.9L65.6 94h-1.7l8.8-22.1h1L82.4 94h-1.7L77.6 86.2zM69.3 84.8h7.9l-3-7.9c-0.3-0.6-0.6-1.5-0.9-2.6 -0.3 1-0.6 1.8-0.9 2.6L69.3 84.8z"/><path class="st6" d="M91.2 94h-1.5V73.5h-7.1V72h15.8v1.4h-7.1V94z"/><path class="st6" d="M112.2 86.2h-8.9l-3.1 7.8h-1.7l8.8-22.1h1L117 94h-1.7L112.2 86.2zM103.8 84.8h7.9l-3-7.9c-0.3-0.6-0.6-1.5-0.9-2.6 -0.3 1-0.6 1.8-0.9 2.6L103.8 84.8z"/></svg>