<svg xmlns="http://www.w3.org/2000/svg" version="1.1" x="0" y="0" width="145.4" height="321.4" viewBox="0 0 145.4 321.4" xml:space="preserve" enable-background="new 0 0 145.4 321.4"><style type="text/css">
	.st0{fill:#4D4E4E;}
	.st1{fill:url(#SVGID_1_);}
	.st2{fill:url(#SVGID_2_);}
	.st3{fill:url(#SVGID_3_);}
	.st4{fill:url(#SVGID_4_);}
	.st5{fill:url(#SVGID_5_);}
	.st6{fill:#D0D2D3;}
	.st7{fill:#FFFFFF;}
	.st8{fill:none;stroke:#D0D2D3;stroke-miterlimit:10;}
	.st9{fill:#34A751;}
	.st10{fill:none;}
	.st11{fill:#333333;}
	.st12{fill:url(#SVGID_6_);}
	.st13{fill:url(#SVGID_7_);}
	.st14{fill:url(#SVGID_8_);}
	.st15{fill:url(#SVGID_9_);}
	.st16{fill:url(#SVGID_10_);}
</style><polygon class="st0" points="145.4 269.9 73.6 279.8 0 269.9 0 0 145.4 0 "/><radialGradient id="SVGID_1_" cx="-813.35" cy="-13.07" r="169.89" gradientTransform="matrix(4.489700e-11 1 1 -4.489700e-11 161.4886 1046.7749)" gradientUnits="userSpaceOnUse"><stop offset="0" stop-color="#FFCE4E"/><stop offset="1" stop-color="#F3C135"/></radialGradient><path class="st1" d="M54.1 288.9L0 256.3l0 16.5c0 3.9 2.7 8.7 6.1 10.7l23.1 13.9c3.4 1.6 8.3 1.6 11.4-0.3L54.1 288.9z"/><radialGradient id="SVGID_2_" cx="-813.35" cy="-13.07" r="169.88" gradientTransform="matrix(4.489700e-11 1 1 -4.489700e-11 161.4886 1046.7749)" gradientUnits="userSpaceOnUse"><stop offset="0" stop-color="#07A860"/><stop offset="1" stop-color="#06914A"/></radialGradient><path class="st2" d="M78.8 274c-3.3 2-8.8 2-12.2 0L5.4 237.4c-3-1.4-5.4 0.1-5.4 3.7l0 15.2 54.1 32.6L78.8 274z"/><radialGradient id="SVGID_3_" cx="-813.35" cy="-13.07" r="169.88" gradientTransform="matrix(4.489700e-11 1 1 -4.489700e-11 161.4886 1046.7749)" gradientUnits="userSpaceOnUse"><stop offset="0" stop-color="#587EBE"/><stop offset="1" stop-color="#557EBF"/></radialGradient><path class="st3" d="M145.4 241.1c0-3.9-2.7-5.5-6.1-3.5l-98.8 59.5c-3.1 1.9-8 1.9-11.4 0.3l24.1 14.5 92.2-55.5V241.1z"/><radialGradient id="SVGID_4_" cx="-813.35" cy="-13.07" r="169.88" gradientTransform="matrix(4.489700e-11 1 1 -4.489700e-11 161.4886 1046.7749)" gradientUnits="userSpaceOnUse"><stop offset="0" stop-color="#DF4B3E"/><stop offset="1" stop-color="#CC382C"/></radialGradient><path class="st4" d="M78.8 319.9l60.6-36.4c3.3-2 6.1-6.8 6.1-10.7v-16.5l-92.2 55.5 13.4 8C70 321.9 75.5 321.9 78.8 319.9z"/><linearGradient id="SVGID_5_" gradientUnits="userSpaceOnUse" x1="-740.86" y1="-107.51" x2="-781.79" y2="-107.51" gradientTransform="matrix(4.489700e-11 1 1 -4.489700e-11 161.4886 1046.7749)"><stop offset="0" style="stop-color:#221F1F;stop-opacity:0.2"/><stop offset="1" style="stop-color:#F2F2F2;stop-opacity:0.25"/></linearGradient><path class="st5" d="M40.6 297.1L78.8 274c-3.3 2-8.8 2-12.2 0l-13.5-8.1 -23.9 31.5C32.5 299 37.5 299 40.6 297.1z"/><path class="st6" d="M43.2 33.7h12.4v16.2c-2 0.7-3.9 1.1-5.7 1.4 -1.8 0.3-3.6 0.4-5.4 0.4 -4.7 0-8.3-1.4-10.8-4.1 -2.5-2.8-3.7-6.7-3.7-11.9 0-5 1.4-9 4.3-11.8 2.9-2.8 6.9-4.2 12-4.2 3.2 0 6.3 0.6 9.3 1.9l-2.2 5.3c-2.3-1.1-4.6-1.7-7.1-1.7 -2.9 0-5.1 1-6.9 2.9 -1.7 1.9-2.6 4.5-2.6 7.7 0 3.4 0.7 6 2.1 7.8 1.4 1.8 3.4 2.7 6 2.7 1.4 0 2.8-0.1 4.2-0.4v-6.5h-5.9V33.7z"/><path class="st6" d="M85.4 35.3c0 5.1-1.5 9.1-4.4 11.8s-7.1 4.1-12.7 4.1h-8.8V20h9.8c5.1 0 9 1.3 11.9 4C84 26.7 85.4 30.5 85.4 35.3zM78.5 35.5c0-6.7-3-10-8.9-10h-3.5v20.3h2.8C75.3 45.7 78.5 42.3 78.5 35.5z"/><path class="st6" d="M100.2 33.7h12.4v16.2c-2 0.7-3.9 1.1-5.7 1.4 -1.8 0.3-3.6 0.4-5.4 0.4 -4.7 0-8.3-1.4-10.8-4.1 -2.5-2.8-3.7-6.7-3.7-11.9 0-5 1.4-9 4.3-11.8 2.9-2.8 6.9-4.2 12-4.2 3.2 0 6.3 0.6 9.3 1.9l-2.2 5.3c-2.3-1.1-4.6-1.7-7.1-1.7 -2.9 0-5.1 1-6.9 2.9 -1.7 1.9-2.6 4.5-2.6 7.7 0 3.4 0.7 6 2.1 7.8 1.4 1.8 3.4 2.7 6 2.7 1.4 0 2.8-0.1 4.2-0.4v-6.5h-5.9V33.7z"/><path class="st6" d="M33 63.6v5.8H32V56.1h3.2c1.7 0 2.9 0.3 3.7 0.9 0.8 0.6 1.2 1.5 1.2 2.8 0 0.9-0.2 1.7-0.7 2.3s-1.2 1.1-2.2 1.3l3.6 6.1h-1.1l-3.5-5.8H33zM33 62.8h2.6c1.1 0 2-0.3 2.6-0.8 0.6-0.5 0.9-1.2 0.9-2.2 0-1-0.3-1.8-0.9-2.2 -0.6-0.5-1.6-0.7-3-0.7H33V62.8z"/><path class="st6" d="M43.2 69.5V56.1h0.9v13.4H43.2z"/><path class="st6" d="M59.2 62.7c0 2.1-0.5 3.8-1.6 5 -1.1 1.2-2.5 1.9-4.4 1.9 -1.9 0-3.3-0.6-4.4-1.9 -1.1-1.2-1.6-2.9-1.6-5.1 0-2.1 0.5-3.8 1.6-5 1.1-1.2 2.5-1.8 4.4-1.8 1.9 0 3.3 0.6 4.4 1.8C58.7 58.9 59.2 60.6 59.2 62.7zM48.2 62.7c0 1.9 0.4 3.4 1.3 4.5 0.9 1 2.1 1.6 3.7 1.6 1.6 0 2.8-0.5 3.7-1.6 0.9-1 1.3-2.5 1.3-4.5 0-1.9-0.4-3.4-1.3-4.4 -0.9-1-2.1-1.5-3.7-1.5 -1.6 0-2.8 0.5-3.7 1.6C48.7 59.4 48.2 60.8 48.2 62.7z"/><path class="st6" d="M77.4 62.6c0 2.3-0.6 4-1.8 5.1 -1.2 1.2-2.9 1.7-5.2 1.7h-3.2V56.1h3.6c2.1 0 3.8 0.6 4.9 1.7C76.8 58.9 77.4 60.5 77.4 62.6zM76.3 62.7c0-1.9-0.5-3.4-1.5-4.3 -1-1-2.4-1.5-4.3-1.5h-2.5v11.8h2.2C74.3 68.6 76.3 66.6 76.3 62.7z"/><path class="st6" d="M87.8 69.5h-7.3V56.1h7.3v0.9h-6.4V62h6v0.9h-6v5.8h6.4V69.5z"/><path class="st6" d="M95.7 69.5V56.1h0.9v12.5h6.4v0.9H95.7z"/><path class="st6" d="M111.8 64.7h-5.4l-1.9 4.7h-1l5.4-13.5h0.6l5.3 13.5h-1.1L111.8 64.7zM106.7 63.9h4.8l-1.8-4.8c-0.2-0.4-0.3-0.9-0.6-1.6 -0.2 0.6-0.3 1.1-0.5 1.6L106.7 63.9z"/><path class="st6" d="M46.5 78.5c0 2.1-0.7 3.8-2.2 4.9 -1.4 1.1-3.5 1.7-6.1 1.7h-3.4v9.1h-1.5v-22h5.4C43.9 72.2 46.5 74.3 46.5 78.5zM34.8 83.8h3c2.5 0 4.3-0.4 5.4-1.2 1.1-0.8 1.7-2.1 1.7-4 0-1.7-0.5-2.9-1.6-3.8 -1-0.8-2.7-1.2-4.8-1.2h-3.6V83.8z"/><path class="st6" d="M51.3 94.2v-22h1.5v20.5h10.5v1.4H51.3z"/><path class="st6" d="M77.6 86.4h-8.9l-3.1 7.8h-1.7l8.8-22.1h1l8.7 22.1h-1.7L77.6 86.4zM69.3 85h7.9l-3-7.9c-0.3-0.6-0.6-1.5-0.9-2.6 -0.3 1-0.6 1.8-0.9 2.6L69.3 85z"/><path class="st6" d="M91.2 94.2h-1.5V73.6h-7.1v-1.4h15.8v1.4h-7.1V94.2z"/><path class="st6" d="M112.2 86.4h-8.9l-3.1 7.8h-1.7l8.8-22.1h1l8.7 22.1h-1.7L112.2 86.4zM103.8 85h7.9l-3-7.9c-0.3-0.6-0.6-1.5-0.9-2.6 -0.3 1-0.6 1.8-0.9 2.6L103.8 85z"/><path class="st6" d="M57.5 151c-1.5-1.5-0.5-3.6-0.3-5.3 -1-2-1.1-5.8 2.1-5.5 2 0 3.9-2.6 3.9-3.7 1.2 2 1 0.3 1.5-0.6 0.4 1.2 2.5 0.6 1.4 0 -1.5-0.7-4.5-0.5-3.6 1.8 -1.3 2.1-4.7 2.5-6.2 0.4 -2-1.6 0.5 1.4 1.2 1.8 -1.3 1.1-3-2.6-3.1-4 0.4-1 1.7-5.3-0.2-2.9 -0.6 0.8 1.1 2.7-0.8 1.5 -1.5-0.8-4.8-1-3.3-3.5 -0.5-1.4-2.2-2.3-1-4 -1.1-1.5-0.8-2.7 0.2-4.1 0.1-2.2 2-3.7 3.4-5.2 2.1 0.3 4-2.8 5.7-0.5 1.6-1.1 3.8-0.7 3.8 1.5 0.9-0.1 1.3-1.8 2.7-0.5 0.9 0.7 1.4 2.1 2.1 0.5 1.1-0.7 2.9 1.3 2.1-1.1 -0.9-2.4 2.6-3.5 2.3-5.4 1.1-0.8 1-2-0.3-0.8 -1.8 1.7-1-2-1.1-3.1 0.2-0.5-0.4-2.5 0.5-1.7 0.8 0.5 1.5 1 2.3 1.5 -0.6-0.9-1.2-1.8-1.8-2.7 1.8 0 3.7 0 5.5 0 -0.7 1.3-2.2 2.7-1.6 4.3 1.3 2.3 2.4-0.6 1.2-1.5 -2.6 1.2 1.9-3.7 0.9-0.4 0.1 1.6 0 3.2 0 4.8 -1.1-0.9-2.2-2.6-3.7-1.9 -1.7 1.1-0.7 2.2 0.9 1.7 1.2 0-0.2-2.3 1-0.7 0.8 0.9-0.3 1.8 1.2 2.5 1.2 1.5 1.6 6 4.4 4.3 0.9-1.9 2.9 0.6 3.8-1.5 1.3-0.2 2.7 0.3 3.9-0.9 1.6 1.9 4.8-0.1 5.5 2.8 2.4 0.5 3 3.3 3.2 5.4 0.2 2.5-0.2 5.1-0.4 7.7 -2 1.2-3.8 2.6-4.4 5.1 -1.6 2.1-2.7 4.4-2.4 7.1 -1.8 2.1 1.5 4.7-0.5 6.9 -1.9 1.9-4.7 1-6.9 0.7 -0.9-1-3.2 0.8-4.7-0.2 -3.4-0.3-7-0.4-10.4 0.1 -1.3 0.5-3.9 1.1-4.4 0C61.3 152.4 58.9 152.5 57.5 151L57.5 151zM63.9 150.9c1.7-0.2 4.4-0.7 6.5-0.6 2.8 0 5.5-0.3 8.3-0.4 1.7 0.8 4 0.5 5.9 0.6 1.7 0.2 6-0.1 3.8-2.7 -1.8-1-3.9-2-6.1-1.9 -4.5-0.1-9-0.5-13.4-0.1 -2.1 0.5-4.3 0.1-6.4 0.7 -1.8 0.5-5 0.8-4.8 3.1C59.2 151.6 62 150.3 63.9 150.9L63.9 150.9 63.9 150.9zM60.6 149.3c-0.7-0.5-2.3 0.2-0.8-1 0.8-1.2 4.5-1.2 1.7-0.3 -1.6 0.4 0 0.6 0.7 0.8C64 149.1 60.5 150.3 60.6 149.3L60.6 149.3zM85.8 149c-0.2-0.7-1.5-0.5-0.2-1.4 1.1-0.5 3.3 1 0.9 0.7 0 0.6 2.3 1.9 0 1.4C86.2 149.6 85.8 149.3 85.8 149L85.8 149zM66.1 148.4c0.5-1.2-2.1 0.3-0.5-0.9 0.7-1 4.7-0.7 1.9-0.3 -2.2 1.2 3.3 1 0.1 1.7C67.2 149 65.7 149.4 66.1 148.4L66.1 148.4zM71.7 148.7c-2.6-1.9 4.5-2.5 1.5-1.3 -2.3-0.4-0.4 1.1 0.8 1C74.4 149.6 72.2 149.2 71.7 148.7L71.7 148.7zM78.6 148.5c-1.3-0.9 1 0.3 0.1-1.2 0.4-1.9 4.1-0.1 1.2 0.3 -1.8 0.6 1.5 0.1 1.3 1.2C80.5 149.7 79.2 149 78.6 148.5L78.6 148.5zM74.7 145c2.9-0.1 6 0.1 8.8-0.4 -4.3-0.8-8.8-0.4-13.2-0.3 -3.9 0.2-8 0.4-11.6 1.9 1.9 0.2 4.2-0.9 6.3-0.9C68.3 145.1 71.5 145.1 74.7 145L74.7 145zM88.2 146.4c0.1-1.2 1.9-3.7-0.8-3.1 -1.4 1.2 3 0 0.6 1.1 -2.3 0.1-1.6-2.2 0.1-1.9 -0.9-1-4.6-0.7-4.2-1.6 1.8-0.3 4.6 1.6 5.5 1.5 -1.4-2-4.6-1.4-6.8-1.8 -5.8-0.2-11.6-0.1-17.3 0.4 -1.3 0.3 2.8 0 1.3 1.5 -1.3 1.5-4.4 0.3-2.6-1.1 -2-0.1-4.2 0.9-6 0.7 2.4-1.3 5.3-1.3 7.9-1.6 5.1-0.5 10.2-0.2 15.2-0.6 -1.5-0.7-4.1-0.5-6.1-0.5 -5.5 0.2-11.1 0.4-16.4 1.9 -0.5 0.3-2.9 1-1.2 1.1 1.6 0.1 3.8 0.8 1.5 2.3 -1.1-0.5-1.1-0.9 0.1-0.7 0.5-1.9-3.1 0.9-0.4 1.1 2.8-0.6 5.7-1.1 8.6-1.4 6.3-0.7 12.7-0.8 18.8 1 0.5 0.2 3.1 1.4 1.3 0.9 -0.9-0.4-2.7-0.1-0.8 0.6C86.7 146.2 88.9 147.2 88.2 146.4L88.2 146.4zM79.9 142.6c-1.3-2.4 6-0.5 2.4 0.7C81.5 143.3 80.5 143.2 79.9 142.6L79.9 142.6zM82.6 142.3c-0.1-1.3-2.8 0-0.7 0.5l0.4-0.1L82.6 142.3 82.6 142.3 82.6 142.3zM71.5 142.4c-1.4-0.9 2.4-2.6 0.8-0.5 1.2 0.5 2-0.1 1.2-1.1 1.5 0 2.3 2.2 0.2 1.7C73 142.5 72.2 142.6 71.5 142.4L71.5 142.4zM66.1 142.3c-0.3-1.5-3 0.7-0.7 0.5C65.7 142.7 66 142.5 66.1 142.3L66.1 142.3zM90.4 138.2c0.7-0.4 3-3.5 0.9-1.9 -1.1 1.6-2.6 4-5 3.3 -1.9-0.4-3.9-2.3-5.8-0.8 -1.4 0.6-0.3 0.5 0.6 0.6 2.3-0.4 4.4 1.1 6.6 0.8C88.7 139.7 89.6 139 90.4 138.2L90.4 138.2zM67.2 139c2.3-0.1 4.7-1.6 6.1-2.8 1.8 1.3 3.9 3.2 6.3 2.2 1.1 0.1 3.5-2 1-1 -2 1.4-4.6 0.6-6-1.2 -0.5-0.8-1.4-3.1-1.8-0.9 -1.1 2.4-4 3.2-6.4 2.3 -1.2-0.7-4.3 1.8-3.4 2.1C64.4 139.4 65.8 139.2 67.2 139L67.2 139zM65.4 138.3c-1.2-1.5 3.1 1.3 0.3 0.2L65.4 138.3 65.4 138.3 65.4 138.3zM74.3 137.7c-0.6-0.7-1.2-1.4-1.8-0.3 -0.3 0.5-2 1.6-0.7 1.3 1.2 0 2.4 0 3.5 0C75 138.4 74.7 138.1 74.3 137.7L74.3 137.7zM83.9 137.7c-1.6-1 0.8 2.2 0.2 0.2L83.9 137.7 83.9 137.7 83.9 137.7zM90.5 134c-0.4-0.5-1-2.1-1.1-0.6 -0.3 1.5-0.9 2.9-1 4.4C89.6 137.2 92.2 135.5 90.5 134L90.5 134zM57.4 134.8c-0.1-1.1-1.1-3-1.4-0.8 -1.6 1.8 2.9 4.9 1.7 1.7l-0.1-0.5L57.4 134.8 57.4 134.8 57.4 134.8zM82.7 135.7c-0.8 0.1 0.2 2.5 0.1 0.3L82.7 135.7 82.7 135.7 82.7 135.7zM84.8 136.6C83.5 135 82.3 137.3 84.8 136.6L84.8 136.6zM81.8 135.9c-0.9-1.3-1.9 0.8-0.1 0.3l0.1-0.1L81.8 135.9 81.8 135.9 81.8 135.9zM61.5 134.4c-0.5-1.1-1.5-2.6 0.2-1.1 1.8 0.4 2.7-2.4 1.7-4.1 -0.3-0.5-1.3-2.6-1.1-0.9 -0.4 1.1 0.7 4.4-0.5 4 -1.5-1.7-3.4 0.4-1.7 1.8C60.5 135.1 62.1 136.4 61.5 134.4L61.5 134.4zM62.9 131.6C63.5 128.8 63.3 133.7 62.9 131.6L62.9 131.6zM71.9 132.9c-0.3-0.9-1.7-2.2-2.2-2.4 0.1 1.8 0.2 3.5 0.3 5.3C70.6 134.9 71.5 134 71.9 132.9L71.9 132.9zM86.2 134.4c1-1.3 0.6-3.7-1.2-1.9 -2.1 1.4 2.2-0.5-0.1 1C84.2 134.3 85.1 137.4 86.2 134.4L86.2 134.4zM76.8 132.9c-0.1-0.7 0.1-2-0.1-2.3 -0.8 0.9-1.6 1.9-2.5 2.8 1 0.7 3 3 2.6 0.4l0-0.4L76.8 132.9 76.8 132.9 76.8 132.9zM83.6 134.8c-0.8-0.9-2.6-0.3-0.6 0.2C83.3 135 84.2 135.6 83.6 134.8L83.6 134.8zM93.2 133c-0.6-0.1-2.8-2.1-2.6-1.3 0.5 1.1 0.7 2.5 1.5 3.2C92.6 134.4 92.9 133.7 93.2 133L93.2 133zM64.5 134.4c-1.2-0.4-1.9 0.5-0.2 0.2C64.4 134.8 64.9 134.5 64.5 134.4L64.5 134.4zM67.2 134.2c0.4-0.7-1.7 0.6-0.5-1 1.6-1.4-1.2-4.3-1.8-1.5 -0.8 1.5 0 0.7 0.8 0.5C65.7 132.9 65.8 136.2 67.2 134.2L67.2 134.2zM81.2 133.4c1.7-1.8-2.5-4.4-1.7-1.1 0.4 1.1 0.2 3.8 1.5 1.6L81.2 133.4 81.2 133.4 81.2 133.4zM73.9 133c-0.2-2-2.5 0.9-0.4 0.7l0.3-0.2L73.9 133 73.9 133 73.9 133zM83.6 132.3c0 0.5-0.5 2.5 0 1.1 0.7-1.6 1.4-3.5 0.4-5.2 -1 1-1.8 2.8-1.6 4.4 0 1 0 2 0.4 0.5 0.3-0.8 0.7-1.7 1-2.5C83.8 131.1 83.7 131.7 83.6 132.3L83.6 132.3zM52.2 132.8c0.7-2-2.7-2.1-1.5 0C51 133.5 51.8 133.4 52.2 132.8L52.2 132.8zM53.9 131.3c-1.3-3-2.1-7.2 0.5-9.8 2.6-2.2 6.2-0.9 9.1 0.1 2.3 0.9 4.7 1.2 7.2 1 -3.3-0.4-6.5-1.2-9.7-2.4 -2.7-0.9-6.3-0.6-7.9 2.1 -1.8 2.5-0.9 5.7-0.2 8.4C52.7 131.7 54.8 133.1 53.9 131.3L53.9 131.3zM94.3 126.2c0.4-2.7-1.3-5.3-3.8-6.2 -3-0.8-6.1 0.1-8.8 1.3 -1.1 0.6-4.4 0.8-4.3 1.4 4.2-0.1 8-3.1 12.3-2.3 2.8 0.3 4.4 3.2 4.1 5.8 0 1.8-0.6 3.8-0.7 5.5C94 130.1 94.2 128.1 94.3 126.2L94.3 126.2zM74.4 131.3c0.5-1 2-2.3-0.2-2 -1.3-0.1-4.2-0.2-2 1.5C72.2 131.9 73.8 132.2 74.4 131.3L74.4 131.3zM96.3 131.1c-0.4-2.3-3.3 0-1 0.7C95.8 131.8 96.3 131.6 96.3 131.1L96.3 131.1zM57.7 126.9c0.3-1.2-0.3-2.6-0.6-0.6 0.4 1.3-0.1 2.9-0.4 3.8C57.6 129.4 57.6 128 57.7 126.9L57.7 126.9zM51.2 129c0.4-2.3-2.8-1.6-1.5 0.3C50.1 129.9 51.1 129.7 51.2 129L51.2 129zM71.4 125.2c0.1-2-0.1-4.2-1.7-5.6 -1-1.2 0.4 0.8 0.6 1.2 1 2.6 0.3 5.4 0.9 8C71.4 127.6 71.3 126.4 71.4 125.2L71.4 125.2zM72.2 122.9c-0.3-0.5-0.2 2.6-0.2 3.5 0.2 2.4 0.3-1.9 0.2-2.6l0-0.5L72.2 122.9 72.2 122.9 72.2 122.9zM73.9 128.3C73 126.3 72.2 130.2 73.9 128.3L73.9 128.3zM75.8 125.4c0-1.6-1.5-2.7 0.1-3.7 0.3-1.3 2.5-3.4 1.1-4.2 0.9 2.6-1.2 0.7-1.9-0.4 -1.3 0.7-4.3 1.4-5.1 0.3 1.9-0.7 3-2 3.3-4 1.2-1.7-2.5 1-2.7 1.9 -2 1.9-0.2 4.4 1.9 5.2 1.3 1.3 3.4-1.6 3.9-0.5 -1.1 0.9-1.5 2.2-2.3 2.6 1.6 1.2 0.1 5.3 1.4 5.6C75.8 127.3 75.8 126.3 75.8 125.4L75.8 125.4zM78.9 127.9c1.3-1.9-2.5 2.1-0.2 0.3L78.9 127.9 78.9 127.9 78.9 127.9zM89.9 126.7c-0.4-0.9-1.6-2-0.6-0.2 0.3 1 2.2 3.2 1 0.9l-0.2-0.3L89.9 126.7 89.9 126.7 89.9 126.7zM96.7 127.4c-0.7-2.5-3.2 0.6-1.1 1.2C96.2 128.6 96.8 128 96.7 127.4L96.7 127.4zM65.6 126.8c-1.5-1.5 2.5-1.3 3.4-2.2 1.5 0 1.9-1.4 0.1-1.2 -3.5 0.1-6.6-1.7-10-2.3 -3-0.6-6.2 2-5.6 5.1 0.3 2.6 2.8-1.4 4.2-1.5 2.4-1.2 5.1 0.6 7 2C65.1 127.5 67.1 128.6 65.6 126.8L65.6 126.8zM74.2 125.5c0.4-1.1-2-4.1-0.9-1.7 1.5 0.6-1.4 1.4 0.6 1.8 0.1 0.7-1.9 0.3-0.5 1.5C74.2 127.4 74.1 126 74.2 125.5L74.2 125.5zM80.5 126.2c0.9-0.2 3.4-0.9 4.7-2 2.5-0.9 4.7 1 6.9 1.9 0.7 0.4 1.7 1.1 1.2-0.2 -0.1-2.2-1.4-4.5-3.8-4.9 -4.3-0.9-8 2.5-12.3 2.4 -2.5 1.6 2.7 2.1 2.8 3.8C80.5 127.2 80.8 126.5 80.5 126.2L80.5 126.2zM50.6 125.3c-0.7-2.4-3 0.8-0.7 0.9C50.3 126.1 50.7 125.7 50.6 125.3L50.6 125.3zM96.3 124.3c-0.7-2.9-2.7 1.6-0.2 0.8C96.3 124.9 96.3 124.6 96.3 124.3L96.3 124.3zM51.9 122.1c-0.1-2.5-3.4 0-1 0.7C51.3 122.9 51.9 122.6 51.9 122.1L51.9 122.1zM73.9 121.8C73 119.8 72.2 123.7 73.9 121.8L73.9 121.8zM95.7 120.6c-0.5-2.5-3.5 1-0.7 1C95.4 121.5 95.7 121.1 95.7 120.6L95.7 120.6zM68.8 120.2c-0.4-2.7-3.5 1.4-0.7 1C68.4 121 68.7 120.6 68.8 120.2L68.8 120.2zM79.4 120c-0.9-2.3-2.5 1.6-0.4 1C79.2 120.7 79.4 120.4 79.4 120L79.4 120zM64.9 119.3c-0.8-2.8-3.2 1.4-0.4 1.2C64.8 120.2 64.9 119.7 64.9 119.3L64.9 119.3zM53.8 119.6c1.2-2.1-3.2-2-1.6 0.2C52.6 120.6 53.5 120.2 53.8 119.6L53.8 119.6zM82.6 119.3c-0.7-2.4-3 0.8-0.7 0.9C82.3 120.1 82.6 119.7 82.6 119.3L82.6 119.3zM61.2 118.5c0.5-3.2-3.5-0.3-0.8 0.8C60.8 119.3 61.1 118.9 61.2 118.5L61.2 118.5zM86.1 118.3c-0.6-2.5-3.1 0.8-0.9 0.9C85.6 119.1 86.1 118.8 86.1 118.3L86.1 118.3zM92.7 118.4c-0.8-2.6-3.2 1.6-0.4 0.8C92.7 119.2 92.8 118.8 92.7 118.4L92.7 118.4zM57.8 117.9c-0.1-2.5-3.7 0.4-1.3 0.8C57 118.7 57.6 118.4 57.8 117.9L57.8 117.9zM89.2 117.6c-0.5-2.5-3.5 1-0.7 1C88.9 118.5 89.2 118.1 89.2 117.6L89.2 117.6zM75.4 116.6c3.1 1-0.3-4.4-1.4-2 -0.6-1.7-1 3.6 0.2 2C74.6 116.6 75 116.6 75.4 116.6L75.4 116.6zM72.4 109.3c-0.7-2.5-2.7-1.6-2 0.6C70 112.2 72.3 110.2 72.4 109.3L72.4 109.3zM73.9 109.3C73 107.3 72.2 111.2 73.9 109.3L73.9 109.3zM74.2 107.3c1.1-2.4-3.5 0-0.8 0.9C73.8 108 74 107.7 74.2 107.3L74.2 107.3z"/><path class="st7" d="M23 149.6c0 0-18.1 94.6 49.7 111.3v0c0 0 0 0 0 0V149.6H23z"/><path class="st8" d="M23 149.6c0 0-18.1 94.6 49.7 111.3v0c0 0 0 0 0 0V149.6H23z"/><path class="st9" d="M122.4 149.6H72.7v111.3l0 0c0 0 0 0 0 0v0C140.5 244.2 122.4 149.6 122.4 149.6z"/><path class="st8" d="M122.4 149.6H72.7v111.3l0 0c0 0 0 0 0 0v0C140.5 244.2 122.4 149.6 122.4 149.6z"/><path class="st10" d="M61.2 176.8c-0.4 0-0.8 0-1.2 0 -1.5 0-3 0-4.6 0 -4.3 0-8.6 0-12.8 0 -2.7 0-5.5 0-8.2 0 -0.2 0-0.4-0.2-0.4-0.1 0 0.5 0 1 0 1.5 0 1.9 0 3.9 0 5.8 0 3.1 0 6.1 0 9.2 0 0 0.4 0 0.4 0 2.4 0 4.7 0 7.1 0 4.3 0 8.6 0 12.9 0 1.6 0 3.2 0 4.9 0 0.7 0 1.3-0.1 2.2 0 0-2.2 0-4.4 0-6.6 0-3.4 0-6.7 0-10.1C61.5 176.4 61.3 176.8 61.2 176.8z"/><path class="st11" d="M67.2 199.6c-0.6-0.8-1.3-1.6-1.9-2.3 -1-1.2-1.9-2.3-2.9-3.5 -0.1-0.1 0-0.6 0-0.7 0-0.7 0-1.3 0-2 0-2 0-4.1 0-6.1 0-2 0-4.1 0-6.1 0-0.7 0-1.3 0-2 0-0.3 0-0.3 0-0.6 -0.2-0.9-1.6-0.4-2.3-0.4 -1.5 0-3 0-4.5 0 -4.3 0-8.5 0-12.8 0 -2.8 0-5.7 0-8.5 0 -0.5 0-1.1-0.3-1.1 0.3 0 0.3 0 0.6 0 0.8 0 1.7 0 3.3 0 5 0 3.8 0 7.5 0 11.3 0 0.1 0.1 0.5 0 0.6 -0.3 0.4-0.7 0.8-1 1.2 -1.3 1.6-2.6 3.1-3.9 4.7 -0.2 0.2-0.4 0.4-0.6 0.7 -0.1 0.1-0.3 0.3-0.2 0.4 0 0.3 0.1 0.7 0.2 1 0 0.2 0 0.6 0.1 0.7 0.1 0.1 0.2 0.1 0.2 0.2 0.2 0.1 0.2 0.3 0.4 0.4 0 0 0.1 0.3 0.1 0.3 0 0 0.1 0 0.1 0 0.3 0 0.5 0 0.8 0 1.1 0 2.3 0 3.4 0 3.8 0 7.7 0 11.5 0 4.3 0 8.6 0 13 0 2.9 0 5.8 0 8.7 0 0.1 0 0.9-0.4 1-0.3 0 0 0-0.1 0-0.1 0 0.1 0.8-0.3 0.7-0.3 0.1 0 0.3-1.7 0.3-1.9 0-0.1-0.2-0.3-0.3-0.4C67.6 200.1 67.4 199.9 67.2 199.6zM61.5 186.7c0 2.2 0 4.4 0 6.6 -0.9-0.1-1.5 0-2.2 0 -1.6 0-3.2 0-4.9 0 -4.3 0-8.6 0-12.9 0 -2.4 0-4.7 0-7.1 0 -0.1 0-0.4 0-0.4 0 0-3.1 0-6.1 0-9.2 0-1.9 0-3.9 0-5.8 0-0.5 0-1 0-1.5 0-0.2 0.2 0.1 0.4 0.1 2.7 0 5.5 0 8.2 0 4.3 0 8.6 0 12.8 0 1.5 0 3 0 4.6 0 0.4 0 0.8 0 1.2 0 0.1 0 0.3-0.4 0.3-0.2C61.5 180 61.5 183.3 61.5 186.7z"/><rect x="84.9" y="176.7" class="st10" width="20.8" height="33.2"/><path class="st11" d="M106.4 172.1H84.1c-0.9 0-1.7 0.8-1.7 1.7v39c0 0.9 0.8 1.7 1.7 1.7h22.3c0.9 0 1.7-0.8 1.7-1.7v-39C108.1 172.8 107.3 172.1 106.4 172.1zM105.7 210H84.9v-33.2h20.8V210z"/></svg>